<svg width="25" height="30" viewBox="0 0 25 30" fill="none" xmlns="http://www.w3.org/2000/svg">
<path d="M6.89629 28.6355C6.65443 28.6355 6.44228 28.4998 6.38216 28.3044L4.20952 21.2291C4.13696 20.9936 4.30834 20.7541 4.59236 20.6945C4.87569 20.6349 5.16593 20.7764 5.23779 21.0125L6.7498 25.9347L7.57698 21.1322C7.58872 21.0623 7.6212 20.9953 7.67095 20.938L23.7176 2.4152C24.0943 1.9809 23.974 1.373 23.4502 1.06132C22.9285 0.749066 22.196 0.848189 21.8187 1.28019L14.3761 9.7684C14.2048 9.96377 13.8744 10.009 13.6346 9.86523C13.3976 9.72257 13.3451 9.44698 13.5179 9.25046L20.9597 0.762817C21.6791 -0.0593609 23.0743 -0.246718 24.0694 0.346855C24.5538 0.634472 24.8731 1.06189 24.9698 1.55004C25.0659 2.03762 24.9277 2.52692 24.5801 2.92856L8.60939 21.3637L7.42149 28.258C7.38556 28.466 7.17755 28.6235 6.92463 28.635C6.91495 28.6355 6.90528 28.6355 6.89629 28.6355Z" fill="black"/>
<path d="M2.9438 29.0331C2.70193 29.0331 2.48979 28.8974 2.42967 28.7014L0.0165468 20.8429C-0.0297529 20.6933 0.0227639 20.5346 0.153373 20.4252L13.57 9.19314C13.7752 9.02011 14.1124 9.01896 14.3204 9.1897C14.5291 9.36101 14.5305 9.63946 14.3246 9.81192L1.11876 20.8675L2.7973 26.3323L3.62448 21.5293C3.64037 21.4359 3.69289 21.3488 3.77374 21.2812L16.6866 10.5264C16.8932 10.3539 17.229 10.3539 17.437 10.5252C17.6443 10.6966 17.6457 10.975 17.4384 11.1475L4.64998 21.7985L3.46899 28.6556C3.43306 28.8636 3.22505 29.0211 2.97213 29.0326C2.96245 29.0332 2.95278 29.0331 2.9438 29.0331Z" fill="black"/>
</svg>
