<svg width="16" height="30" viewBox="0 0 16 30" fill="none" xmlns="http://www.w3.org/2000/svg">
<path d="M11.1026 29.0452H5.97207C3.76262 29.0452 1.96484 27.1912 1.96484 24.9126V9.42488C1.96484 9.308 2.00985 9.19628 2.08985 9.11378L8.9304 2.0586C9.0104 1.9761 9.11873 1.92969 9.23206 1.92969H11.1026C13.3121 1.92969 15.1098 3.78372 15.1098 6.06287V24.9126C15.1098 27.1912 13.3121 29.0452 11.1026 29.0452ZM2.81818 9.60708V24.9126C2.81818 26.7059 4.23318 28.1652 5.97207 28.1652H11.1026C12.8415 28.1652 14.2565 26.7059 14.2565 24.9126V6.06288C14.2565 4.269 12.8415 2.80973 11.1026 2.80973H9.40874L2.81818 9.60708Z" fill="black"/>
<path d="M3.5653 8.66701C3.45586 8.66701 3.34697 8.62404 3.26364 8.5381L1.47363 6.69266C1.39363 6.61015 1.34863 6.49843 1.34863 6.38155C1.34863 6.26468 1.39363 6.15295 1.47363 6.07045L5.99253 1.41016C6.15919 1.23828 6.42919 1.23828 6.59586 1.41016L8.38586 3.25617C8.46586 3.33868 8.51086 3.4504 8.51086 3.56728C8.51086 3.68415 8.46586 3.79588 8.38586 3.87838L3.86697 8.5381C3.78364 8.62404 3.67474 8.66701 3.5653 8.66701ZM2.37863 6.38155L3.5653 7.60478L7.48086 3.56728L6.29419 2.34348L2.37863 6.38155Z" fill="black"/>
<path d="M2.74375 5.8182C2.63042 5.8182 2.52208 5.77179 2.44209 5.68929L0.769861 3.96416C0.344304 3.52587 0.109863 2.94262 0.109863 2.32155C0.109863 1.70105 0.34431 1.1178 0.769861 0.67893C1.64709 -0.225738 3.07597 -0.226882 3.95542 0.67893L5.62764 2.40405C5.7943 2.57593 5.7943 2.85438 5.62764 3.02626L3.04542 5.68929C2.96542 5.77179 2.85708 5.8182 2.74375 5.8182ZM2.36264 0.879464C2.00431 0.879464 1.64597 1.01984 1.37319 1.30115C1.10875 1.57387 0.963195 1.93654 0.963195 2.32155C0.963195 2.70714 1.10875 3.06924 1.37319 3.34196L2.74375 4.75597L4.72264 2.71516L3.35208 1.30115C3.07931 1.01984 2.72097 0.879464 2.36264 0.879464Z" fill="black"/>
<path d="M14.6832 12.6691H2.39151C2.15595 12.6691 1.96484 12.472 1.96484 12.2291C1.96484 11.9862 2.15595 11.7891 2.39151 11.7891H14.6832C14.9187 11.7891 15.1098 11.9862 15.1098 12.2291C15.1098 12.472 14.9187 12.6691 14.6832 12.6691Z" fill="black"/>
<path d="M14.6832 24.5753H2.39151C2.15595 24.5753 1.96484 24.3783 1.96484 24.1353C1.96484 23.8924 2.15595 23.6953 2.39151 23.6953H14.6832C14.9187 23.6953 15.1098 23.8924 15.1098 24.1353C15.1098 24.3783 14.9187 24.5753 14.6832 24.5753Z" fill="black"/>
<path d="M6.8517 22.6974H6.84725C6.64114 22.6951 6.46558 22.5438 6.43058 22.3341C6.42447 22.3015 6.2528 21.4409 5.23558 21.1384C5.0528 21.084 4.92725 20.9115 4.92725 20.7156C4.92725 20.5197 5.0528 20.3472 5.23558 20.2928C6.2528 19.9903 6.42447 19.1297 6.43114 19.0936C6.47002 18.8862 6.64614 18.7344 6.85058 18.7344H6.85503C7.06114 18.7367 7.23669 18.8885 7.2717 19.0982C7.27781 19.1303 7.44892 19.9903 8.46614 20.2928C8.64893 20.3472 8.77448 20.5197 8.77448 20.7156C8.77448 20.9115 8.64893 21.084 8.46614 21.1384C7.44892 21.4409 7.27781 22.3015 7.27115 22.3382C7.23226 22.5456 7.05614 22.6974 6.8517 22.6974ZM6.32836 20.7156C6.54892 20.8806 6.71947 21.0651 6.85114 21.2461C6.98225 21.0651 7.1528 20.8806 7.37336 20.7156C7.15281 20.5506 6.98225 20.3661 6.85114 20.185C6.71947 20.3661 6.54892 20.5506 6.32836 20.7156Z" fill="black"/>
<path d="M9.52301 19.3975C9.31524 19.3975 9.13746 19.2428 9.10246 19.0314C9.09246 18.9758 8.82746 17.5945 7.20579 17.1126C7.02357 17.0582 6.89746 16.8857 6.89746 16.6898C6.89746 16.4938 7.02357 16.3214 7.20579 16.267C8.82746 15.7851 9.09246 14.4043 9.10302 14.3459C9.14024 14.1368 9.31691 13.9844 9.52302 13.9844H9.5258C9.73247 13.9855 9.90858 14.1385 9.94358 14.3482C9.95358 14.4043 10.2186 15.7851 11.8397 16.267C12.0225 16.3214 12.148 16.4938 12.148 16.6898C12.148 16.8857 12.0225 17.0582 11.8397 17.1126C10.1991 17.6002 9.9458 19.0176 9.94358 19.0314C9.90858 19.2428 9.73079 19.3975 9.52301 19.3975ZM8.39412 16.6898C8.93301 17.0255 9.28968 17.4472 9.52301 17.8311C9.75635 17.4472 10.1125 17.0255 10.6519 16.6898C10.1125 16.354 9.75635 15.9324 9.52301 15.5485C9.28968 15.9324 8.93301 16.354 8.39412 16.6898Z" fill="black"/>
</svg>
