<svg width="29" height="30" viewBox="0 0 29 30" fill="none" xmlns="http://www.w3.org/2000/svg">
<path d="M9.47047 26.9989H9.43028C8.6781 26.9881 7.97493 26.673 7.45044 26.1116C6.92595 25.5513 6.64265 24.8111 6.65311 24.0286C6.6633 23.2461 6.96615 22.5145 7.50523 21.9691C8.61891 20.8423 10.4049 20.8686 11.4878 22.0253C12.5706 23.1836 12.5461 25.0426 11.433 26.1689C10.9035 26.7051 10.2078 26.9989 9.47047 26.9989ZM9.4691 22.0201C8.97352 22.0201 8.47739 22.2126 8.09497 22.5999C7.71778 22.9814 7.50606 23.4935 7.49862 24.0406C7.49146 24.5883 7.68969 25.1062 8.0567 25.498C8.4237 25.891 8.9157 26.111 9.44212 26.119C9.97542 26.1213 10.466 25.9196 10.8432 25.5387C11.6218 24.7498 11.6392 23.4494 10.8815 22.6388C10.4961 22.2269 9.98257 22.0201 9.4691 22.0201Z" fill="black"/>
<path d="M2.8186 19.9145C2.0934 19.9145 1.38747 19.6361 0.86326 19.0753C-0.219582 17.9181 -0.123769 15.9869 1.07718 14.7713C2.27841 13.5551 4.13601 13.5093 5.21912 14.6676C5.74857 15.2336 6.01508 15.9967 5.9691 16.817C5.92422 17.6225 5.58172 18.3878 5.00492 18.9716C4.38545 19.5983 3.59115 19.9145 2.8186 19.9145ZM3.26351 14.7066C2.70434 14.7066 2.12286 14.9403 1.66693 15.402C0.800491 16.2791 0.711837 17.6523 1.46952 18.4617C2.22693 19.2724 3.54847 19.2191 4.41519 18.3409C4.84001 17.9112 5.0922 17.3515 5.12469 16.766C5.15663 16.1955 4.97492 15.6678 4.61287 15.2812C4.25385 14.8968 3.76763 14.7066 3.26351 14.7066Z" fill="black"/>
<path d="M7.48191 29.0308C7.25863 29.0308 7.07224 28.8498 7.06012 28.6155C7.05792 28.5691 7.00946 27.4715 7.68703 26.7376C8.08074 26.3109 8.61624 26.0989 9.2938 26.1098C9.52728 26.1132 9.71422 26.3126 9.71092 26.556C9.70762 26.7989 9.50718 27.012 9.28224 26.9897C8.84834 26.9851 8.52814 27.0991 8.30018 27.3443C7.87673 27.7986 7.90454 28.5628 7.90481 28.5703C7.91527 28.8126 7.73577 29.0188 7.50312 29.0303C7.49624 29.0308 7.48907 29.0308 7.48191 29.0308Z" fill="black"/>
<path d="M10.6242 22.3323C10.5433 22.3323 10.4618 22.3082 10.3896 22.2584C10.1955 22.1232 10.1432 21.8499 10.2729 21.6477L12.1035 18.7959L12.2555 13.608C12.2585 13.5015 12.2984 13.4006 12.3675 13.3227L24.0833 0.141536C24.2334 -0.0268879 24.4825 -0.0480846 24.6557 0.0945637C24.8289 0.236637 24.868 0.493284 24.7454 0.684049L10.9761 22.1364C10.8946 22.2635 10.7608 22.3323 10.6242 22.3323ZM13.096 13.7988L12.99 17.4142L21.0666 4.83106L13.096 13.7988Z" fill="black"/>
<path d="M15.6151 12.4581C15.3816 12.4581 15.1895 12.261 15.1895 12.0181C15.1895 11.7752 15.3758 11.5781 15.6093 11.5781H15.6151C15.8486 11.5781 16.038 11.7752 16.038 12.0181C16.038 12.261 15.8486 12.4581 15.6151 12.4581Z" fill="black"/>
<path d="M12.6459 15.1835C12.6255 15.1835 12.6049 15.1818 12.5842 15.1789L8.27547 14.523C8.0442 14.488 7.88423 14.264 7.9181 14.024C7.95196 13.784 8.16947 13.6213 8.39771 13.6522L12.7065 14.3081C12.9378 14.3437 13.0977 14.5671 13.0639 14.8071C13.033 15.026 12.8524 15.1835 12.6459 15.1835Z" fill="black"/>
<path d="M16.5761 13.1994C16.4494 13.1994 16.3239 13.1404 16.2407 13.0275C16.0981 12.8351 16.1328 12.5589 16.3178 12.4106L23.1411 6.94709L19.2128 9.17957C19.0085 9.29586 18.7511 9.21795 18.639 9.00427C18.527 8.79116 18.6024 8.52363 18.8075 8.40734L27.4843 3.47606C27.6776 3.3655 27.9204 3.42909 28.041 3.62157C28.1618 3.81406 28.1197 4.0707 27.9449 4.21106L16.8337 13.1083C16.7569 13.1696 16.6661 13.1994 16.5761 13.1994Z" fill="black"/>
<path d="M5.25674 15.8904C5.09293 15.8904 4.93682 15.7907 4.86799 15.6245C4.77576 15.4011 4.87487 15.1422 5.08935 15.0465L14.7072 10.7397C14.9219 10.6423 15.1705 10.7465 15.2628 10.9694C15.355 11.1928 15.2559 11.4517 15.0414 11.5474L5.42359 15.8543C5.36907 15.8789 5.31235 15.8904 5.25674 15.8904Z" fill="black"/>
</svg>
