<svg width="20" height="20" viewBox="0 0 20 20" fill="none" xmlns="http://www.w3.org/2000/svg">
<path d="M9.59779 15.8673H3.28265C3.23427 15.8673 3.18636 15.859 3.14165 15.8429C3.09695 15.8268 3.05633 15.8032 3.02212 15.7734C2.98791 15.7437 2.96077 15.7083 2.94226 15.6694C2.92375 15.6305 2.91423 15.5888 2.91424 15.5467L2.91406 4.51489C2.91409 4.42988 2.95291 4.34836 3.022 4.28825C3.09108 4.22814 3.18477 4.19436 3.28247 4.19434H13.5361C13.5844 4.19432 13.6324 4.20261 13.6771 4.21871C13.7218 4.23482 13.7624 4.25843 13.7966 4.2882C13.8308 4.31797 13.8579 4.35331 13.8765 4.39221C13.895 4.4311 13.9045 4.47279 13.9045 4.51489V11.2985C13.9045 11.3835 13.8657 11.465 13.7966 11.5251C13.7275 11.5852 13.6338 11.619 13.5361 11.619C13.4384 11.619 13.3446 11.5852 13.2756 11.5251C13.2065 11.465 13.1677 11.3835 13.1677 11.2985V4.83544H3.65088L3.65106 15.2262H9.59779C9.6955 15.2262 9.7892 15.26 9.85829 15.3201C9.92739 15.3802 9.9662 15.4617 9.9662 15.5467C9.9662 15.6318 9.92739 15.7133 9.85829 15.7734C9.7892 15.8335 9.6955 15.8673 9.59779 15.8673Z" fill="black"/>
<path d="M9.67938 9.58814H7.23219C6.8009 9.58766 6.38742 9.43837 6.08247 9.173C5.77751 8.90763 5.60597 8.54785 5.60547 8.17258V7.04907C5.60547 6.96405 5.64428 6.88252 5.71337 6.8224C5.78246 6.76229 5.87617 6.72852 5.97388 6.72852C6.07159 6.72852 6.16529 6.76229 6.23438 6.8224C6.30347 6.88252 6.34229 6.96405 6.34229 7.04907V8.17257C6.34254 8.37788 6.43637 8.57472 6.6032 8.7199C6.77003 8.86509 6.99623 8.94677 7.23219 8.94703H9.67938C9.91534 8.94677 10.1415 8.86509 10.3084 8.7199C10.4752 8.57472 10.569 8.37788 10.5693 8.17257V7.04907C10.5693 6.96405 10.6081 6.88252 10.6772 6.8224C10.7463 6.76229 10.84 6.72852 10.9377 6.72852C11.0354 6.72852 11.1291 6.76229 11.1982 6.8224C11.2673 6.88252 11.3061 6.96405 11.3061 7.04907V8.17257C11.3056 8.54784 11.1341 8.90762 10.8291 9.17299C10.5242 9.43837 10.1107 9.58766 9.67938 9.58814Z" fill="black"/>
<path d="M9.44208 4.83601C9.3937 4.83602 9.34579 4.82774 9.30108 4.81163C9.25638 4.79553 9.21576 4.77192 9.18155 4.74215C9.14734 4.71238 9.1202 4.67704 9.10169 4.63814C9.08318 4.59924 9.07366 4.55756 9.07367 4.51546V3.31712C9.06018 3.08164 8.94017 2.86037 8.73985 2.7016C8.53952 2.54284 8.27514 2.45948 8.00442 2.46972H5.20842C4.9377 2.45948 4.67332 2.54284 4.47299 2.7016C4.27266 2.86037 4.15265 3.08164 4.13916 3.31712V4.51546C4.13916 4.60047 4.10035 4.68201 4.03126 4.74212C3.96217 4.80224 3.86846 4.83601 3.77075 4.83601C3.67305 4.83601 3.57934 4.80224 3.51025 4.74212C3.44116 4.68201 3.40234 4.60047 3.40234 4.51546V3.31712C3.41585 2.9116 3.6135 2.52725 3.95201 2.24826C4.29052 1.96927 4.7423 1.81837 5.20842 1.82861H8.00441C8.47053 1.81837 8.92231 1.96927 9.26083 2.24826C9.59934 2.52725 9.79699 2.9116 9.81049 3.31712V4.51546C9.81051 4.55756 9.80099 4.59924 9.78248 4.63814C9.76397 4.67704 9.73683 4.71238 9.70262 4.74215C9.6684 4.77191 9.62779 4.79553 9.58308 4.81163C9.53838 4.82774 9.49047 4.83602 9.44208 4.83601Z" fill="black"/>
<path d="M11.7819 3.09736C11.7577 3.09737 11.7337 3.09323 11.7114 3.08518C11.689 3.07713 11.6687 3.06533 11.6516 3.05044C11.6345 3.03556 11.6209 3.01788 11.6117 2.99843C11.6024 2.97898 11.5976 2.95814 11.5977 2.93708V2.34387C11.5977 2.30136 11.6171 2.2606 11.6516 2.23054C11.6862 2.20048 11.733 2.18359 11.7819 2.18359C11.8307 2.18359 11.8776 2.20048 11.9121 2.23054C11.9467 2.2606 11.9661 2.30136 11.9661 2.34387V2.93708C11.9661 2.95814 11.9613 2.97898 11.9521 2.99843C11.9428 3.01788 11.9293 3.03556 11.9121 3.05044C11.895 3.06533 11.8747 3.07713 11.8524 3.08518C11.83 3.09323 11.8061 3.09737 11.7819 3.09736Z" fill="black"/>
<path d="M11.7819 0.913767C11.7577 0.913779 11.7337 0.909641 11.7114 0.901591C11.689 0.89354 11.6687 0.881735 11.6516 0.866849C11.6345 0.851964 11.6209 0.83429 11.6117 0.814839C11.6024 0.795388 11.5976 0.774541 11.5977 0.75349V0.160277C11.5977 0.117769 11.6171 0.0770017 11.6516 0.046944C11.6862 0.0168863 11.733 0 11.7819 0C11.8307 0 11.8776 0.0168863 11.9121 0.046944C11.9467 0.0770017 11.9661 0.117769 11.9661 0.160277V0.75349C11.9661 0.774541 11.9613 0.795388 11.9521 0.814839C11.9428 0.83429 11.9293 0.851964 11.9121 0.866849C11.895 0.881735 11.8747 0.89354 11.8524 0.901591C11.83 0.909641 11.8061 0.913779 11.7819 0.913767Z" fill="black"/>
<path d="M10.866 1.70923H10.1842C10.1354 1.70923 10.0885 1.69234 10.054 1.66228C10.0194 1.63222 10 1.59146 10 1.54895C10 1.50644 10.0194 1.46567 10.054 1.43562C10.0885 1.40556 10.1354 1.38867 10.1842 1.38867H10.866C10.9148 1.38867 10.9617 1.40556 10.9962 1.43562C11.0308 1.46567 11.0502 1.50644 11.0502 1.54895C11.0502 1.59146 11.0308 1.63222 10.9962 1.66228C10.9617 1.69234 10.9148 1.70923 10.866 1.70923Z" fill="black"/>
<path d="M13.3779 1.70923H12.6959C12.6471 1.70923 12.6002 1.69234 12.5657 1.66228C12.5311 1.63222 12.5117 1.59146 12.5117 1.54895C12.5117 1.50644 12.5311 1.46567 12.5657 1.43562C12.6002 1.40556 12.6471 1.38867 12.6959 1.38867H13.3779C13.4267 1.38867 13.4736 1.40556 13.5081 1.43562C13.5427 1.46567 13.5621 1.50644 13.5621 1.54895C13.5621 1.59146 13.5427 1.63222 13.5081 1.66228C13.4736 1.69234 13.4267 1.70923 13.3779 1.70923Z" fill="black"/>
<path d="M14.2623 3.90431C14.2381 3.90433 14.2142 3.90019 14.1918 3.89214C14.1695 3.88409 14.1492 3.87228 14.132 3.8574C14.1149 3.84251 14.1014 3.82484 14.0921 3.80539C14.0829 3.78594 14.0781 3.76509 14.0781 3.74404V3.35461C14.0781 3.3121 14.0975 3.27134 14.1321 3.24128C14.1666 3.21122 14.2135 3.19434 14.2623 3.19434C14.3112 3.19434 14.358 3.21122 14.3926 3.24128C14.4271 3.27134 14.4465 3.3121 14.4465 3.35461V3.74404C14.4465 3.76509 14.4418 3.78594 14.4325 3.80539C14.4233 3.82484 14.4097 3.84251 14.3926 3.8574C14.3755 3.87228 14.3552 3.88409 14.3328 3.89214C14.3105 3.90019 14.2865 3.90433 14.2623 3.90431Z" fill="black"/>
<path d="M14.2623 3.57704C14.2381 3.57706 14.2142 3.57292 14.1918 3.56487C14.1695 3.55682 14.1492 3.54501 14.132 3.53013C14.1149 3.51524 14.1014 3.49757 14.0921 3.47812C14.0829 3.45867 14.0781 3.43782 14.0781 3.41677V2.50989C14.0781 2.46738 14.0975 2.42661 14.1321 2.39655C14.1666 2.3665 14.2135 2.34961 14.2623 2.34961C14.3112 2.34961 14.358 2.3665 14.3926 2.39655C14.4271 2.42661 14.4465 2.46738 14.4465 2.50989V3.41677C14.4465 3.43782 14.4418 3.45867 14.4325 3.47812C14.4233 3.49757 14.4097 3.51524 14.3926 3.53013C14.3755 3.54501 14.3552 3.55682 14.3328 3.56487C14.3105 3.57292 14.2865 3.57706 14.2623 3.57704Z" fill="black"/>
<path d="M14.0028 3.28735H13.5553C13.5064 3.28735 13.4596 3.27046 13.425 3.24041C13.3905 3.21035 13.3711 3.16958 13.3711 3.12707C13.3711 3.08457 13.3905 3.0438 13.425 3.01374C13.4596 2.98368 13.5064 2.9668 13.5553 2.9668H14.0029C14.0517 2.9668 14.0986 2.98368 14.1331 3.01374C14.1677 3.0438 14.1871 3.08457 14.1871 3.12707C14.1871 3.16958 14.1677 3.21035 14.1331 3.24041C14.0986 3.27046 14.0517 3.28735 14.0028 3.28735Z" fill="black"/>
<path d="M14.9724 3.28735H14.0358C13.9869 3.28735 13.9401 3.27046 13.9055 3.24041C13.871 3.21035 13.8516 3.16958 13.8516 3.12707C13.8516 3.08457 13.871 3.0438 13.9055 3.01374C13.9401 2.98368 13.9869 2.9668 14.0358 2.9668H14.9724C15.0213 2.9668 15.0681 2.98368 15.1027 3.01374C15.1372 3.0438 15.1566 3.08457 15.1566 3.12707C15.1566 3.16958 15.1372 3.21035 15.1027 3.24041C15.0681 3.27046 15.0213 3.28735 14.9724 3.28735Z" fill="black"/>
<path d="M3.28403 15.8673C3.23878 15.8673 3.19391 15.8601 3.15163 15.846L1.90788 15.4294L0.487292 15.8501C0.431855 15.8666 0.3727 15.8713 0.314742 15.8639C0.256785 15.8564 0.201698 15.8371 0.15406 15.8074C0.106422 15.7778 0.0676091 15.7386 0.0408454 15.6933C0.0140818 15.648 0.000140624 15.5977 0.000180521 15.5467L0 4.51489C2.53923e-05 4.42988 0.0388481 4.34836 0.107933 4.28825C0.177018 4.22814 0.270709 4.19436 0.36841 4.19434H3.28385C3.38156 4.19434 3.47526 4.22811 3.54435 4.28822C3.61344 4.34834 3.65226 4.42987 3.65226 4.51489C3.65226 4.59991 3.61344 4.68144 3.54435 4.74156C3.47526 4.80167 3.38156 4.83544 3.28385 4.83544H0.73682L0.737001 15.0991L1.79692 14.7851C1.87857 14.7608 1.96748 14.7622 2.04804 14.7892L3.41645 15.2475C3.49672 15.2744 3.56364 15.3249 3.6056 15.3903C3.64756 15.4556 3.66193 15.5317 3.64621 15.6053C3.63048 15.6789 3.58566 15.7453 3.51952 15.7932C3.45337 15.8411 3.37006 15.8673 3.28403 15.8673Z" fill="black"/>
<path d="M14.6967 10.7734C13.648 10.7735 12.6229 11.044 11.751 11.551C10.879 12.0579 10.1994 12.7785 9.79813 13.6215C9.39682 14.4645 9.29183 15.3921 9.49642 16.287C9.70101 17.1819 10.206 18.004 10.9475 18.6492C11.6891 19.2944 12.6338 19.7338 13.6624 19.9118C14.6909 20.0898 15.757 19.9985 16.7259 19.6493C17.6947 19.3001 18.5228 18.7088 19.1055 17.9501C19.6881 17.1915 19.9991 16.2995 19.9991 15.387C19.9975 14.1639 19.4384 12.9912 18.4443 12.1262C17.4503 11.2613 16.1025 10.7748 14.6967 10.7734Z" fill="#EA1C24"/>
<path d="M13.6796 17.4019C13.4501 17.3463 13.2369 17.2483 13.0547 17.1147L13.4416 16.4689C13.5619 16.5679 13.7045 16.644 13.8604 16.6924C14.0311 16.7467 14.2117 16.7738 14.3934 16.7726C14.6276 16.784 14.8596 16.7277 15.0532 16.6124C15.1268 16.5622 15.1865 16.4983 15.2282 16.4255C15.2699 16.3526 15.2925 16.2726 15.2943 16.1913C15.2962 16.1099 15.2772 16.0292 15.2388 15.955C15.2004 15.8808 15.1435 15.815 15.0723 15.7622C14.8999 15.6525 14.6892 15.5979 14.4758 15.6076C14.259 15.6051 14.045 15.6507 13.8541 15.7402L13.5875 15.293L14.7868 14.095H13.283V13.3662H16.0811V13.9128L14.939 14.9673C15.1621 14.9845 15.3785 15.0428 15.5737 15.1383C15.805 15.2162 16.0025 15.3553 16.1383 15.5359C16.2766 15.7254 16.3472 15.9463 16.3413 16.1707C16.3469 16.4182 16.2698 16.6618 16.1193 16.8718C15.9643 17.0794 15.7425 17.2427 15.4816 17.3412C15.1744 17.4569 14.8422 17.5133 14.5076 17.5068C14.2271 17.5082 13.948 17.4729 13.6796 17.4019Z" fill="white"/>
</svg>
