<svg width="38" height="37" viewBox="0 0 38 37" fill="none" xmlns="http://www.w3.org/2000/svg">
<path d="M19 30.0625C25.5584 30.0625 30.875 24.8858 30.875 18.5C30.875 12.1142 25.5584 6.9375 19 6.9375C12.4416 6.9375 7.125 12.1142 7.125 18.5C7.125 24.8858 12.4416 30.0625 19 30.0625Z" fill="#2A2424"/>
<path d="M19 34.6875C15.7119 34.6875 12.4976 33.7381 9.76365 31.9594C7.02969 30.1807 4.89882 27.6526 3.64051 24.6947C2.3822 21.7368 2.05297 18.4821 2.69445 15.342C3.33593 12.2019 4.91931 9.31758 7.24436 7.05372C9.56941 4.78985 12.5317 3.24814 15.7566 2.62355C18.9816 1.99895 22.3243 2.31951 25.3621 3.54471C28.3999 4.7699 30.9964 6.84469 32.8232 9.50671C34.65 12.1687 35.625 15.2984 35.625 18.5C35.62 22.7917 33.8668 26.9062 30.7501 29.9409C27.6334 32.9756 23.4077 34.6826 19 34.6875ZM19 4.62501C16.1816 4.62501 13.4265 5.43876 11.0831 6.96337C8.73973 8.48797 6.91327 10.655 5.83472 13.1903C4.75618 15.7256 4.47398 18.5154 5.02382 21.2069C5.57366 23.8984 6.93084 26.3707 8.92374 28.3111C10.9166 30.2516 13.4557 31.573 16.22 32.1084C18.9842 32.6438 21.8494 32.369 24.4532 31.3188C27.0571 30.2687 29.2826 28.4903 30.8484 26.2085C32.4143 23.9268 33.25 21.2442 33.25 18.5C33.2456 14.8214 31.7429 11.2948 29.0714 8.69363C26.4 6.09249 22.778 4.62929 19 4.62501Z" fill="#909090"/>
</svg>
