<svg width="23" height="26" viewBox="0 0 23 26" fill="none" xmlns="http://www.w3.org/2000/svg">
<path d="M0.479794 25.9997C0.27583 25.9997 0.110352 25.8233 0.110352 25.6058V0.393938C0.110352 0.176448 0.27583 0 0.479794 0C0.683758 0 0.849236 0.176448 0.849236 0.393933V25.6058C0.849236 25.8233 0.683758 25.9997 0.479794 25.9997Z" fill="black"/>
<path d="M6.47124 26C6.43949 26 6.40726 25.9959 6.37527 25.9866C6.17804 25.9302 6.06139 25.7137 6.1143 25.504C6.3452 24.5863 6.66726 23.8702 6.97874 23.1778C7.55865 21.8883 8.10632 20.67 8.10632 18.1736C8.10632 15.6735 7.55793 14.4548 6.9773 13.1653C6.38682 11.8532 5.77637 10.497 5.77637 7.82098C5.77637 5.1455 6.38633 3.79084 6.97634 2.4808C7.2871 1.7909 7.58054 1.13895 7.79412 0.292096C7.84704 0.0817935 8.04956 -0.0428494 8.24679 0.0135706C8.44378 0.069996 8.56067 0.286452 8.50752 0.496244C8.27637 1.4144 7.95407 2.12995 7.64235 2.8219C7.06268 4.10937 6.51525 5.32503 6.51525 7.82098C6.51525 10.318 7.06317 11.5351 7.64355 12.8242C8.23428 14.1368 8.8452 15.494 8.8452 18.1736C8.8452 20.849 8.23499 22.2063 7.64499 23.5184C7.33448 24.2088 7.04103 24.8612 6.82769 25.7081C6.78344 25.884 6.63431 26 6.47124 26Z" fill="black"/>
<path d="M14.0449 25.9996C13.9866 25.9996 13.9277 25.9853 13.8726 25.954C13.6922 25.8524 13.6232 25.6144 13.7185 25.4216L13.8058 25.2461C14.1848 24.4891 14.5427 23.774 14.5427 22.3121C14.5427 20.8544 14.1889 20.1414 13.8142 19.3869C13.4144 18.581 13.001 17.7475 13.001 16.0984C13.001 14.4478 13.4149 13.6153 13.8154 12.81C14.1894 12.0575 14.5427 11.3466 14.5427 9.89549C14.5427 8.44132 14.1892 7.72936 13.8149 6.97534C13.4147 6.17003 13.001 5.33702 13.001 3.6869C13.001 2.03576 13.4149 1.2007 13.8152 0.393337L13.9049 0.211759C13.9994 0.018384 14.2228 -0.0554831 14.4035 0.0445411C14.5843 0.145589 14.6543 0.383077 14.5601 0.575943L14.4684 0.761627C14.0937 1.51718 13.7399 2.23119 13.7399 3.6869C13.7399 5.14108 14.0934 5.85304 14.4677 6.60705C14.8679 7.41236 15.2816 8.24537 15.2816 9.89549C15.2816 11.5425 14.8682 12.3745 14.4682 13.1788C14.0937 13.9323 13.7399 14.6437 13.7399 16.0984C13.7399 17.5521 14.0932 18.264 14.4675 19.0181C14.8677 19.8249 15.2816 20.6589 15.2816 22.3121C15.2816 23.971 14.8629 24.8081 14.4578 25.6175L14.3717 25.7899C14.3056 25.9232 14.1774 25.9996 14.0449 25.9996Z" fill="black"/>
<path d="M21.4061 26C21.3467 26 21.2865 25.9846 21.2307 25.9528C21.0513 25.8492 20.9842 25.6102 21.0814 25.4188C21.2822 25.0218 21.3719 24.6099 21.3719 24.0826C21.3719 23.1004 21.0501 22.6362 20.6773 22.0986C20.2823 21.5292 19.835 20.884 19.835 19.6442C19.835 18.406 20.2816 17.7617 20.6758 17.1934C21.0494 16.6548 21.3719 16.1896 21.3719 15.2114C21.3719 14.2286 21.0496 13.7644 20.6766 13.2269C20.2821 12.6585 19.835 12.0143 19.835 10.7781C19.835 9.53987 20.2816 8.89562 20.6758 8.32729C21.0494 7.78871 21.3719 7.32347 21.3719 6.3453C21.3719 5.36201 21.0496 4.8978 20.6766 4.36075C20.2821 3.79242 19.835 3.14817 19.835 1.91199C19.835 1.258 19.9538 0.71685 20.2087 0.208534C20.3049 0.0161824 20.5291 -0.056141 20.7085 0.0469599C20.8885 0.149546 20.9565 0.388064 20.8601 0.579901C20.6648 0.969733 20.5739 1.3929 20.5739 1.91199C20.5739 2.88811 20.8966 3.35335 21.2704 3.89193C21.6644 4.45924 22.1108 5.10195 22.1108 6.33453C22.1108 7.58353 21.6641 8.22778 21.2699 8.79611C20.8964 9.3347 20.5739 9.79993 20.5739 10.7781C20.5739 11.7547 20.8966 12.2195 21.2706 12.758C21.6644 13.3253 22.1108 13.9686 22.1108 15.2006C22.1108 16.4496 21.6641 17.0939 21.2699 17.6622C20.8964 18.2008 20.5738 18.666 20.5738 19.6442C20.5738 20.6244 20.8971 21.0902 21.2714 21.6303C21.6649 22.1976 22.1108 22.8408 22.1108 24.0724C22.1108 24.7387 21.9903 25.2824 21.7312 25.7933C21.6646 25.9251 21.5374 26 21.4061 26Z" fill="black"/>
</svg>
