<svg width="32" height="29" viewBox="0 0 32 29" fill="none" xmlns="http://www.w3.org/2000/svg">
<path d="M10.18 28.2096C9.68473 28.2096 9.22277 28.0706 8.8286 27.7958C8.17912 27.3437 7.80572 26.5876 7.77619 25.667C7.74885 24.7942 8.03752 23.869 8.58969 23.0618C9.14185 22.2546 9.89631 21.6541 10.7153 21.371C11.578 21.072 12.4117 21.1567 13.0606 21.6091C13.7101 22.0615 14.0835 22.8174 14.113 23.7382C14.1404 24.611 13.8517 25.5363 13.2995 26.3434C12.7474 27.1506 11.9929 27.7509 11.174 28.0342C10.835 28.1514 10.5004 28.2096 10.18 28.2096ZM11.7059 22.0441C11.4774 22.0441 11.2357 22.0866 10.9875 22.1727C10.3375 22.3975 9.7312 22.8841 9.28072 23.5432C8.82969 24.2025 8.59351 24.947 8.61538 25.64C8.63615 26.2849 8.88107 26.803 9.30532 27.0985C9.72956 27.3939 10.2959 27.4414 10.9017 27.2325C11.5517 27.0077 12.158 26.5211 12.6085 25.8621C13.0595 25.203 13.2957 24.4582 13.2738 23.7652C13.2531 23.1203 13.0081 22.6022 12.5839 22.3065C12.3335 22.1321 12.0339 22.0441 11.7059 22.0441Z" fill="black"/>
<path d="M3.44783 17.3015C1.89684 17.3015 0.576001 16.499 0.274221 15.2461C0.0877961 14.4725 0.307026 13.6571 0.891994 12.9503C1.4469 12.28 2.27242 11.7835 3.21658 11.5517C5.21313 11.0615 7.13972 11.9222 7.51257 13.4695C7.69899 14.243 7.47976 15.0585 6.89425 15.7655C6.33934 16.4356 5.51382 16.9324 4.56912 17.1638C4.18916 17.2571 3.81249 17.3015 3.44783 17.3015ZM4.35864 12.2588C4.05412 12.2588 3.73649 12.2963 3.41558 12.3749C2.64418 12.5644 1.9772 12.9617 1.53656 13.4935C1.12708 13.989 0.96799 14.5401 1.0899 15.0458C1.35342 16.1388 2.82295 16.7186 4.37121 16.3407C5.14206 16.1517 5.80959 15.7542 6.24969 15.2221C6.65971 14.7266 6.81881 14.1755 6.69689 13.6698C6.48805 12.8036 5.52038 12.2588 4.35864 12.2588Z" fill="black"/>
<path d="M11.1188 20.6142C11.0559 20.6142 10.9919 20.5999 10.9318 20.5695C10.724 20.4647 10.6398 20.2103 10.7437 20.001C10.7568 19.975 10.7776 19.943 10.8 19.9141L10.7995 19.9138C10.8711 19.8178 10.9378 19.727 11.0001 19.6313C11.0056 19.6217 11.011 19.612 11.0171 19.6026C11.8098 18.3905 11.7644 17.1938 11.6665 16.5883C11.6299 16.3453 11.5823 16.2038 11.5818 16.2024C11.5441 16.092 11.5528 15.9687 11.6064 15.8656C11.6162 15.8468 11.8568 15.3869 12.8102 13.8325C13.3553 12.9367 14.1365 11.6893 15.1966 10.0201C15.8565 8.98117 16.5978 7.97787 17.3993 7.03828C17.5507 6.86036 17.8153 6.84049 17.9913 6.9936C18.1674 7.14614 18.1871 7.41373 18.0356 7.59111C17.2599 8.5009 16.5426 9.47193 15.904 10.4774C14.8462 12.1423 14.0682 13.385 13.5248 14.2772C12.8748 15.3373 12.5604 15.8816 12.4292 16.1149C12.4511 16.2027 12.4751 16.3182 12.4959 16.457C12.6123 17.1764 12.6676 18.6049 11.73 20.0512C11.725 20.0597 11.7201 20.0683 11.7147 20.0768C11.6392 20.1944 11.5583 20.3058 11.4708 20.4236L11.4659 20.4297C11.3866 20.5475 11.2549 20.6142 11.1188 20.6142Z" fill="black"/>
<path d="M10.7023 22.1584C10.506 22.1584 10.3306 22.0188 10.2912 21.8169C10.1819 21.2605 10.3415 20.6387 10.7652 19.9692C10.7712 19.9592 10.7794 19.9474 10.7887 19.9347C10.8587 19.8268 10.9336 19.7192 11.0128 19.6158C11.0199 19.6042 11.0281 19.5929 11.0363 19.5819C11.9827 18.3579 13.5178 17.3239 13.9164 17.066L17.9281 9.80343C18.0412 9.59984 18.2966 9.52536 18.4994 9.63956C18.7017 9.75377 18.7744 10.0117 18.6618 10.2161L14.5981 17.5728C14.5631 17.6362 14.5128 17.6894 14.4516 17.7275C14.4341 17.7383 12.6983 18.8252 11.717 20.0787C11.7093 20.0914 11.7006 20.1035 11.6913 20.1154C11.6186 20.2092 11.5502 20.3076 11.4863 20.4064C11.4775 20.4202 11.4682 20.4332 11.4578 20.4458C11.1604 20.9361 11.0516 21.3303 11.1145 21.6525C11.1599 21.882 11.0117 22.1049 10.7843 22.1504C10.757 22.1559 10.7296 22.1584 10.7023 22.1584Z" fill="black"/>
<path d="M12.0791 16.9388C12.0009 16.9388 11.9221 16.917 11.8516 16.8709C11.2639 16.4878 10.0371 15.9109 8.42106 16.3501C8.19746 16.4111 7.96675 16.2773 7.90607 16.0511C7.84593 15.8252 7.97878 15.5926 8.20238 15.5319C10.1328 15.0069 11.6023 15.6994 12.3076 16.1592C12.5022 16.2861 12.558 16.5485 12.4322 16.7451C12.3519 16.8704 12.2168 16.9388 12.0791 16.9388Z" fill="black"/>
<path d="M14.7357 16.8696C14.5318 16.8696 14.353 16.7196 14.3213 16.5096C14.2863 16.2785 14.4437 16.0622 14.6728 16.0272C15.8635 15.844 17.3342 15.6029 19.0442 15.3102C21.9385 14.8147 25.0569 13.9336 27.3312 13.2214L16.5442 14.1165C16.3151 14.1356 16.1106 13.9623 16.0915 13.729C16.0724 13.4956 16.244 13.2912 16.4753 13.2719L30.7552 12.087C30.964 12.0721 31.1548 12.2112 31.1996 12.4186C31.245 12.6258 31.1307 12.8346 30.9334 12.9074C30.8711 12.9303 24.6414 15.2117 19.1842 16.1455C17.4703 16.439 15.9947 16.6809 14.7996 16.8647C14.7778 16.868 14.7564 16.8696 14.7357 16.8696Z" fill="black"/>
<path d="M7.74011 16.4261C7.28744 16.4261 6.86757 16.3284 6.51549 16.089C6.32305 15.9579 6.27221 15.6948 6.40178 15.5006C6.53135 15.3069 6.79267 15.255 6.98456 15.3861C8.11405 16.153 10.9635 14.471 11.8737 13.8225C11.9322 13.7806 12.0006 13.7546 12.0716 13.7472L13.1219 13.6352C13.3597 13.6106 13.5592 13.7792 13.5838 14.012C13.6079 14.2446 13.4411 14.4531 13.2104 14.4777L12.2674 14.5784C11.7152 14.9618 9.49065 16.4261 7.74011 16.4261Z" fill="black"/>
<path d="M20.3935 20.2219C20.2 20.2219 20.0261 20.0865 19.9835 19.8879L19.5915 18.06C19.5428 17.8313 19.6866 17.6057 19.9135 17.5563C20.1366 17.5077 20.3634 17.6517 20.4126 17.8807L20.8046 19.7086C20.8533 19.9372 20.7095 20.1629 20.4826 20.2123C20.4531 20.2189 20.423 20.2219 20.3935 20.2219Z" fill="black"/>
<path d="M19.1186 13.4397C18.925 13.4397 18.7512 13.3039 18.7085 13.1056L16.0095 0.513107C15.9608 0.284418 16.1046 0.0587645 16.3315 0.00938519C16.5551 -0.0391668 16.7814 0.105382 16.8306 0.333797L19.5297 12.9263C19.5783 13.155 19.4346 13.3806 19.2077 13.43C19.1782 13.4366 19.1481 13.4397 19.1186 13.4397Z" fill="black"/>
<path d="M27.1529 18.6037C26.9594 18.6037 26.7855 18.468 26.7429 18.2697L26.3952 16.6465C26.3465 16.4175 26.4903 16.1922 26.7172 16.1428C26.9419 16.0923 27.1672 16.2385 27.2164 16.4672L27.5641 18.0904C27.6127 18.3193 27.4689 18.5447 27.242 18.5941C27.2125 18.6007 27.1825 18.6037 27.1529 18.6037Z" fill="black"/>
<path d="M25.5579 10.9919C25.3644 10.9919 25.1905 10.8564 25.1479 10.6578L24.154 6.02142C24.1053 5.79274 24.2491 5.56708 24.476 5.5177C24.6991 5.4675 24.9259 5.61343 24.9751 5.84211L25.9691 10.4785C26.0177 10.7072 25.8739 10.9328 25.647 10.9822C25.6175 10.9888 25.5875 10.9919 25.5579 10.9919Z" fill="black"/>
<path d="M29.8655 16.9371C29.6725 16.9371 29.4981 16.8016 29.4555 16.603L29.2248 15.5288C29.1761 15.3001 29.3199 15.0748 29.5463 15.0251C29.7742 14.9763 29.9967 15.1208 30.0459 15.3495L30.2767 16.4237C30.3253 16.6524 30.1815 16.8778 29.9552 16.9274C29.9251 16.9341 29.8951 16.9371 29.8655 16.9371Z" fill="black"/>
<path d="M28.4683 10.4355C28.2748 10.4355 28.101 10.3001 28.0583 10.1014L26.2624 1.72438C26.2137 1.4957 26.3575 1.27004 26.5844 1.22066C26.8075 1.17101 27.0349 1.31639 27.0835 1.54507L28.8795 9.92214C28.9281 10.1508 28.7843 10.3765 28.5574 10.4259C28.5279 10.4325 28.4979 10.4355 28.4683 10.4355Z" fill="black"/>
</svg>
