<svg width="31" height="30" viewBox="0 0 31 30" fill="none" xmlns="http://www.w3.org/2000/svg">
<g clip-path="url(#clip0_9427_1710)">
<path d="M5.29421 24.7117C5.18178 24.7117 5.06879 24.6689 4.98332 24.5835L1.2239 20.8479C-0.125798 19.506 -0.129238 17.3197 1.21702 15.9743L9.48843 7.69796L7.97869 6.20293C7.80661 6.03211 7.80546 5.75419 7.97697 5.58252C8.14962 5.41057 8.42782 5.40999 8.60048 5.58081L10.4223 7.38519C10.5049 7.46716 10.5513 7.57885 10.5519 7.6951C10.5525 7.81164 10.506 7.92333 10.4234 8.00588L1.8411 16.5936C0.837865 17.5968 0.840161 19.2266 1.84626 20.2269L5.60511 23.9625C5.77777 24.1336 5.77777 24.4112 5.60626 24.5829C5.52021 24.6689 5.40721 24.7117 5.29421 24.7117Z" fill="black"/>
<path d="M6.83226 6.68277C6.21276 6.68277 5.63055 6.44254 5.19289 6.00637L3.86442 4.68358C3.78181 4.60132 3.73535 4.48963 3.73535 4.37338C3.73535 4.25713 3.78181 4.14544 3.86442 4.06318L6.52078 1.4176C6.69286 1.24622 6.97164 1.24622 7.14372 1.4176L8.47219 2.74039C9.37563 3.64072 9.37563 5.10576 8.47219 6.00638C8.03396 6.44255 7.45175 6.68277 6.83226 6.68277ZM4.79882 4.37338L5.81583 5.38597C6.35846 5.92697 7.30663 5.92639 7.84926 5.38597C8.4091 4.82754 8.4091 3.91921 7.84926 3.36079L6.83226 2.34821L4.79882 4.37338Z" fill="black"/>
<path d="M6.23324 2.61023C6.12024 2.61023 6.00781 2.56738 5.92177 2.48169L4.43326 0.998945C4.26118 0.827564 4.26118 0.549924 4.43326 0.378538C4.60534 0.207151 4.88411 0.207157 5.0562 0.378538L6.54471 1.86128C6.71679 2.03266 6.71679 2.3103 6.54471 2.48169C6.45866 2.56738 6.34624 2.61023 6.23324 2.61023Z" fill="black"/>
<path d="M4.62191 4.21151C4.50891 4.21151 4.39648 4.16866 4.31044 4.08297L2.82193 2.60051C2.64985 2.42913 2.64985 2.15149 2.82193 1.9801C2.99401 1.80871 3.27278 1.80872 3.44487 1.9801L4.93338 3.46256C5.10546 3.63394 5.10546 3.91158 4.93338 4.08297C4.84734 4.16866 4.73491 4.21151 4.62191 4.21151Z" fill="black"/>
<path d="M28.1113 14.3273C27.9988 14.3273 27.8864 14.2847 27.8004 14.1993C27.6277 14.0282 27.6277 13.7503 27.7992 13.5786L29.0589 12.3204C29.4197 11.9596 29.4185 11.3732 29.0566 11.0133C28.694 10.6531 28.105 10.6551 27.7436 11.0159L26.4845 12.2741C26.3124 12.4455 26.0337 12.4467 25.8616 12.2753C25.6889 12.1042 25.6889 11.8265 25.8604 11.6549L27.1195 10.3966C27.8227 9.69338 28.9705 9.68967 29.6784 10.3918C30.385 11.0933 30.3868 12.2364 29.6829 12.9399L28.4233 14.1985C28.3373 14.2842 28.2243 14.3273 28.1113 14.3273Z" fill="black"/>
<path d="M21.8325 8.10172C21.7201 8.10172 21.6077 8.05916 21.5216 7.97376C21.349 7.80266 21.349 7.52474 21.5205 7.35335L22.7801 6.09483C22.9551 5.92001 23.0509 5.68779 23.0509 5.441C23.0503 5.19393 22.9528 4.96199 22.7773 4.78775C22.6023 4.61379 22.3694 4.51811 22.1222 4.51811H22.1205C21.8727 4.51868 21.6398 4.61523 21.4648 4.79003L20.2052 6.04855C20.0331 6.21965 19.7544 6.22051 19.5823 6.04941C19.4096 5.87831 19.4096 5.60039 19.5811 5.42872L20.8408 4.17048C21.1821 3.82972 21.6358 3.64148 22.1193 3.64062H22.1222C22.6046 3.64062 23.0578 3.82715 23.399 4.1662C23.7415 4.50582 23.9308 4.9577 23.9314 5.439C23.9325 5.9203 23.7455 6.37303 23.4042 6.71409L22.1446 7.97261C22.0585 8.05859 21.9455 8.10172 21.8325 8.10172Z" fill="black"/>
<path d="M20.283 22.1537C20.1706 22.1537 20.0581 22.1112 19.9721 22.0258L17.5549 19.6273C17.4723 19.5453 17.4253 19.4336 17.4253 19.3173C17.4253 19.2008 17.4712 19.0891 17.5538 19.0069L25.3818 11.1838C25.5533 11.0124 25.8321 11.0113 26.0047 11.1827L28.4219 13.5812C28.5045 13.6631 28.5515 13.7748 28.5515 13.8911C28.5515 14.0076 28.5057 14.1193 28.4231 14.2016L20.595 22.0246C20.509 22.1106 20.396 22.1537 20.283 22.1537ZM18.4888 19.3154L20.2818 21.0946L27.4881 13.8931L25.695 12.1138L18.4888 19.3154Z" fill="black"/>
<path d="M25.225 11.2969C25.1126 11.2969 25.0001 11.2544 24.9141 11.169C24.742 10.9981 24.7414 10.7202 24.9129 10.5486L25.9202 9.54111C26.1399 9.32174 26.2603 9.03039 26.2598 8.72075C26.2592 8.41112 26.1376 8.12034 25.9173 7.90183C25.4625 7.45052 24.7236 7.45195 24.2711 7.90497L23.2655 8.91013C23.094 9.08151 22.8153 9.08265 22.6426 8.91127C22.4705 8.74046 22.4699 8.46253 22.6415 8.29086L23.647 7.28541C24.4437 6.4902 25.7412 6.48791 26.5391 7.28027C26.9263 7.66417 27.1397 8.17518 27.1408 8.71903C27.142 9.26318 26.9297 9.77504 26.5443 10.1604L25.537 11.1678C25.451 11.2538 25.338 11.2969 25.225 11.2969Z" fill="black"/>
<path d="M17.8658 19.7541C17.7534 19.7541 17.641 19.7115 17.5549 19.6261L14.1706 16.2679C14.088 16.1859 14.041 16.0742 14.041 15.958C14.041 15.8414 14.0869 15.7297 14.1695 15.6475L21.9975 7.82442C22.169 7.65304 22.4478 7.6519 22.6205 7.82328L26.0047 11.1815C26.0873 11.2635 26.1344 11.3752 26.1344 11.4914C26.1344 11.608 26.0885 11.7197 26.0059 11.8019L18.1779 19.625C18.0918 19.711 17.9788 19.7541 17.8658 19.7541ZM15.1045 15.956L17.8647 18.695L25.0709 11.4934L22.3107 8.75446L15.1045 15.956Z" fill="black"/>
<path d="M14.4818 16.3959C14.3694 16.3959 14.257 16.3534 14.1709 16.268L11.7532 13.8695C11.6706 13.7875 11.6235 13.6758 11.6235 13.5595C11.6235 13.443 11.6694 13.3313 11.752 13.249L19.5806 5.42598C19.7527 5.25431 20.0315 5.25375 20.2035 5.42484L22.6207 7.82335C22.7033 7.90533 22.7504 8.01701 22.7504 8.13327C22.7504 8.24981 22.7045 8.36149 22.6219 8.44376L14.7939 16.2668C14.7078 16.3528 14.5948 16.3959 14.4818 16.3959ZM12.687 13.5575L14.4807 15.3368L21.6869 8.13527L19.8938 6.35603L12.687 13.5575Z" fill="black"/>
<path d="M13.357 23.2553C13.0209 23.2553 12.6894 23.195 12.3733 23.0762C12.1462 22.9905 12.0314 22.7371 12.1175 22.5106C12.2035 22.2838 12.4559 22.1707 12.6853 22.2553C12.9045 22.3378 13.1328 22.3781 13.3685 22.3778C13.8899 22.3775 14.3786 22.175 14.7463 21.8074L17.2409 19.3135L14.4807 16.5748L11.9861 19.0684C11.4475 19.6068 11.2737 20.4137 11.5439 21.1241C11.6299 21.3506 11.5158 21.604 11.288 21.6897C11.0597 21.7748 10.8062 21.6617 10.7202 21.4349C10.3278 20.4032 10.5796 19.2312 11.362 18.4491L14.1675 15.6447C14.2501 15.5622 14.362 15.5159 14.479 15.5156C14.5955 15.5156 14.7079 15.5616 14.7905 15.6436L18.1748 19.0016C18.3474 19.1727 18.3474 19.4503 18.1759 19.622L15.3704 22.4266C14.8364 22.9608 14.1262 23.255 13.3708 23.2553L13.357 23.2553Z" fill="black"/>
<path d="M10.0294 18.6283C9.92504 18.6283 9.82064 18.5917 9.73747 18.518L8.87534 17.7574C8.65049 17.5594 8.51569 17.2741 8.50594 16.975C8.49619 16.6757 8.61263 16.3823 8.82486 16.1701L11.7503 13.2463C11.9218 13.0746 12.2005 13.0741 12.3732 13.2452L14.7904 15.6439C14.9625 15.815 14.963 16.0927 14.7915 16.2644L12.9864 18.0702C12.8516 18.2053 12.6439 18.2375 12.4747 18.1516L11.2902 17.5517L10.3415 18.4995C10.2554 18.5852 10.1424 18.6283 10.0294 18.6283ZM12.0634 14.1763L9.44895 16.7893C9.39217 16.8462 9.38528 16.9125 9.38643 16.947C9.38757 16.9813 9.39848 17.047 9.4587 17.1001L10.0105 17.5868L10.8927 16.7062C11.0281 16.5711 11.2352 16.5388 11.4044 16.6251L12.5883 17.2247L13.8565 15.9559L12.0634 14.1763Z" fill="black"/>
<path d="M16.8785 25.2801L16.8469 25.2799C16.5452 25.271 16.2578 25.137 16.0582 24.9122L15.2982 24.0568C15.1439 23.8831 15.1519 23.6203 15.316 23.4561L16.2188 22.5546L15.651 21.3069C15.5758 21.141 15.6114 20.9456 15.7404 20.8162L17.5519 19.0041C17.6339 18.9218 17.7463 18.8753 17.8628 18.875H17.8639C17.9804 18.875 18.0922 18.921 18.1748 19.003L20.592 21.4018C20.7647 21.5729 20.7647 21.8505 20.5931 22.0222L17.6551 24.9591C17.4504 25.1642 17.1687 25.2801 16.8785 25.2801ZM16.232 23.784L16.7179 24.3307C16.7718 24.391 16.8377 24.4018 16.8727 24.4027C16.9095 24.4018 16.9748 24.3964 17.0311 24.3398L19.6582 21.7137L17.8651 19.9344L16.5791 21.2207L17.1475 22.4686C17.2226 22.6349 17.1871 22.8302 17.058 22.9596L16.232 23.784Z" fill="black"/>
<path d="M9.7101 25.6425H9.70896C9.12674 25.6422 8.7453 25.28 8.63803 25.1638C8.52102 25.057 8.15563 24.6782 8.15333 24.0984C8.15104 23.5899 8.42465 23.1021 8.96671 22.6485L10.5935 21.1834C12.1106 19.6661 13.8992 19.3328 13.9749 19.3194C14.1166 19.2942 14.2617 19.3391 14.3632 19.4405C14.4653 19.5416 14.5112 19.6858 14.4865 19.8269C14.4728 19.9021 14.1452 21.6847 12.6114 23.2177L11.1522 24.8387C10.7088 25.368 10.22 25.6425 9.7101 25.6425ZM9.28793 24.5717C9.2885 24.5717 9.47263 24.785 9.71698 24.765C9.94815 24.7616 10.2143 24.5888 10.4856 24.2646L11.9713 22.615C12.7439 21.8424 13.1712 20.9932 13.3961 20.4071C12.8099 20.6313 11.9638 21.056 11.2009 21.8184L9.54547 23.3097C9.30513 23.5114 9.03267 23.801 9.03439 24.0946C9.03496 24.3386 9.22827 24.5125 9.22999 24.5143C9.25122 24.5317 9.27072 24.5508 9.28793 24.5717Z" fill="black"/>
<path d="M8.5403 29.2072C8.14853 29.2072 7.75905 29.0563 7.4625 28.7616L5.03442 26.3525C4.50211 25.8241 4.43271 24.998 4.87094 24.389C5.44971 23.5824 6.10649 22.8223 6.82293 22.1302C7.50437 21.4252 8.26497 20.7683 9.07376 20.1879C9.68408 19.7497 10.5124 19.8148 11.0458 20.3441L11.3315 20.6277C11.5041 20.7988 11.5041 21.0768 11.3326 21.2481C11.1611 21.4195 10.8823 21.4207 10.7097 21.2493L10.424 20.9656C10.1992 20.7423 9.8487 20.7137 9.58885 20.8994C8.82309 21.4495 8.10206 22.0716 7.447 22.7495C6.7581 23.4156 6.13574 24.1354 5.58737 24.8995C5.40152 25.1577 5.43078 25.5073 5.65678 25.7312L8.08429 28.1397C8.30971 28.3643 8.66191 28.3922 8.91946 28.2063C9.68522 27.6564 10.4057 27.034 11.0613 26.3562C11.7485 25.6921 12.3703 24.9723 12.9215 24.2062C13.1062 23.9483 13.077 23.5984 12.8515 23.3744L12.5659 23.0908C12.3932 22.9197 12.3932 22.6418 12.5647 22.4704C12.7368 22.2987 13.0156 22.2982 13.1877 22.4692L13.4733 22.7529C14.0062 23.2813 14.075 24.1074 13.638 24.7167C13.0563 25.5253 12.3995 26.2851 11.6854 26.9755C11.004 27.6804 10.2428 28.3374 9.43456 28.9181C9.16439 29.1121 8.85178 29.2072 8.5403 29.2072Z" fill="black"/>
<path d="M20.9234 24.2714C20.8104 24.2714 20.698 24.2285 20.6119 24.1428L19.2238 22.7606C19.0517 22.5892 19.0517 22.3116 19.2238 22.1402C19.3959 21.9688 19.6746 21.9688 19.8467 22.1402L20.9234 23.2122L28.3711 15.7945L27.3564 15.0121C27.1637 14.8636 27.1287 14.5882 27.2778 14.3966C27.4264 14.2055 27.7028 14.17 27.8956 14.318L29.3061 15.4054C29.4065 15.4826 29.4678 15.5988 29.4759 15.7248C29.4839 15.8505 29.4374 15.9736 29.348 16.0627L21.2349 24.1428C21.1488 24.2285 21.0364 24.2714 20.9234 24.2714Z" fill="black"/>
<path d="M11.047 14.4376C10.9345 14.4376 10.8221 14.395 10.7361 14.3096L9.63647 13.2179C9.46382 13.0468 9.46382 12.7692 9.63533 12.5975L17.7347 4.50393C17.8224 4.41624 17.9457 4.37025 18.0673 4.37539C18.1918 4.3811 18.3077 4.43909 18.3868 4.53478L19.5541 5.94697C19.709 6.13406 19.682 6.41056 19.4939 6.56452C19.3069 6.71762 19.0287 6.6922 18.8738 6.50453L18.0157 5.46623L10.5703 12.906L11.3579 13.688C11.5305 13.8591 11.5305 14.1371 11.359 14.3084C11.273 14.3944 11.16 14.4376 11.047 14.4376Z" fill="black"/>
<path d="M15.6275 24.205C15.5145 24.205 15.4021 24.1621 15.316 24.0764L14.3283 23.0927C14.1562 22.9213 14.1562 22.6437 14.3283 22.4723C14.5004 22.3009 14.7791 22.3009 14.9512 22.4723L15.939 23.456C16.111 23.6274 16.111 23.905 15.939 24.0764C15.8529 24.1621 15.7405 24.205 15.6275 24.205Z" fill="black"/>
<path d="M11.1324 19.7258C11.0194 19.7258 10.907 19.6829 10.821 19.5972L9.71793 18.4989C9.54585 18.3276 9.54585 18.0499 9.71793 17.8785C9.89001 17.7072 10.1688 17.7072 10.3409 17.8785L11.4439 18.9768C11.616 19.1482 11.616 19.4258 11.4439 19.5972C11.3579 19.6829 11.2454 19.7258 11.1324 19.7258Z" fill="black"/>
</g>
<defs>
<clipPath id="clip0_9427_1710">
<rect width="30" height="28.9586" fill="white" transform="translate(0.209473 0.25)"/>
</clipPath>
</defs>
</svg>
