<svg width="31" height="27" viewBox="0 0 31 27" fill="none" xmlns="http://www.w3.org/2000/svg">
<path d="M3.67292 15.0532C1.77901 15.0532 0.232208 13.9948 0.209721 12.6719C0.186934 11.3331 1.73462 10.2222 3.65961 10.1955C5.57691 10.1774 7.16957 11.2374 7.19236 12.5763C7.21514 13.9152 5.66746 15.0261 3.74247 15.0527C3.71909 15.053 3.69571 15.0532 3.67292 15.0532ZM3.67381 11.0137C2.24982 11.0334 1.1037 11.7717 1.1188 12.6597C1.13389 13.5474 2.28592 14.2508 3.72855 14.2345C5.15225 14.2148 6.29836 13.4765 6.28327 12.5886C6.26817 11.7009 5.11999 11.0028 3.67381 11.0137Z" fill="black"/>
<path d="M7.14024 24.9662C6.44659 24.9662 5.81035 24.7529 5.3638 24.3158C4.35677 23.3298 4.69087 21.5736 6.10805 20.4009C6.77654 19.848 7.58797 19.5007 8.39318 19.4229C9.25225 19.3401 9.99946 19.5673 10.5052 20.0624C11.5122 21.0484 11.1784 22.8046 9.76094 23.9773C8.97172 24.6298 8.01085 24.9662 7.14024 24.9662ZM8.72935 20.2246C8.65152 20.2246 8.57192 20.2283 8.49024 20.2363C7.87709 20.2957 7.24972 20.5679 6.72357 21.0034C5.67511 21.8706 5.36528 23.1082 6.03318 23.7621C6.70167 24.4159 8.09755 24.242 9.14571 23.3748C10.1939 22.5074 10.5037 21.2697 9.83581 20.6159C9.57451 20.3602 9.18744 20.2246 8.72935 20.2246Z" fill="black"/>
<path d="M17.4339 16.4578C17.2874 16.4578 17.1409 16.4568 16.9944 16.4544C16.5677 16.4498 16.1641 16.4405 15.7912 16.4309C14.5619 16.4077 13.6132 16.3846 12.8917 16.3617C11.2215 16.3105 10.7463 16.2639 10.7268 16.2618C10.6034 16.2493 10.4909 16.192 10.4157 16.1031C10.4066 16.0924 10.3258 16.0024 10.1763 15.8785C9.77181 15.5392 8.90267 14.9722 7.60711 14.9682C7.47839 14.9631 7.37866 14.9682 7.27509 14.9759C7.01408 14.9956 6.75781 14.8052 6.75781 14.5682C6.75781 14.3423 6.96141 14.1591 7.21235 14.1591H7.23809C7.34462 14.15 7.48223 14.1455 7.61865 14.1505C9.21546 14.1551 10.2941 14.859 10.7942 15.2782C10.8777 15.3475 10.9463 15.41 10.9999 15.4617C11.2544 15.4788 11.8237 15.5105 12.9178 15.544C13.6422 15.5669 14.5868 15.5901 15.8134 15.613C16.1848 15.6223 16.5837 15.6316 17.008 15.6362C17.8014 15.6508 18.5915 15.6263 19.3624 15.568C19.6169 15.5544 19.8327 15.7166 19.8534 15.9416C19.8741 16.167 19.6882 16.3646 19.4382 16.3835C18.7795 16.4328 18.1071 16.4578 17.4339 16.4578Z" fill="black"/>
<path d="M7.21716 14.9748C7.19378 14.9748 7.17129 14.9737 7.15235 14.9713C6.46196 14.9609 5.89379 14.7817 5.5153 14.4416C5.33745 14.282 5.33745 14.0229 5.5147 13.8631C5.69166 13.7027 5.9793 13.7027 6.15745 13.8625C6.36282 14.0468 6.71675 14.1459 7.20946 14.1566C7.22159 14.1558 7.23462 14.1547 7.24379 14.1558C7.34884 14.1566 7.45597 14.155 7.56191 14.1475C7.5767 14.1465 7.5918 14.1465 7.60571 14.1462C9.04272 14.0426 10.739 13.349 10.7561 13.3421C10.8268 13.3131 10.907 13.3 10.9822 13.3062L19.179 13.9004C19.4294 13.9185 19.6158 14.1158 19.5957 14.3409C19.5753 14.5665 19.3563 14.7311 19.1062 14.7159L11.0242 14.1302C10.5978 14.2969 9.0442 14.8712 7.64211 14.9644C7.6288 14.9654 7.614 14.9657 7.60217 14.9652C7.48439 14.9729 7.3675 14.9761 7.24824 14.974C7.23788 14.9745 7.22752 14.9748 7.21716 14.9748Z" fill="black"/>
<path d="M8.99396 18.8347C8.8673 18.8347 8.74153 18.7873 8.65157 18.6949C8.48615 18.5249 8.50539 18.2663 8.69448 18.1177C9.83143 17.2223 10.0182 16.1351 10.0279 15.5668C10.0318 15.343 10.2348 15.1641 10.4822 15.1641H10.4896C10.7405 15.1678 10.9408 15.3537 10.937 15.5795C10.9246 16.2837 10.6946 17.6298 9.29285 18.7335C9.20673 18.8014 9.10019 18.8347 8.99396 18.8347Z" fill="black"/>
<path d="M14.8825 14.2238C14.7833 14.2238 14.6836 14.1948 14.6002 14.1351C14.4037 13.9948 14.3708 13.7372 14.5268 13.5604L22.0015 5.08588C20.9306 5.5248 18.7644 6.92599 15.0343 11.345C14.2557 12.2676 13.5118 12.9172 12.914 13.439C12.6539 13.6661 12.4219 13.868 12.2295 14.0579C12.06 14.2244 11.7726 14.2361 11.5874 14.084C11.4021 13.9319 11.3891 13.6731 11.5584 13.5061C11.7617 13.3058 12.0061 13.0919 12.281 12.8517C12.8566 12.3491 13.5733 11.7235 14.3105 10.8502C20.6015 3.39759 22.8914 3.98033 23.2861 4.17342C23.4042 4.23095 23.488 4.33269 23.5149 4.45121C23.5418 4.56946 23.509 4.69251 23.4255 4.78732L15.2388 14.0691C15.1491 14.1708 15.0165 14.2238 14.8825 14.2238Z" fill="black"/>
<path d="M8.35787 20.0045C8.10782 20.0045 7.90452 19.8226 7.90334 19.5973C7.89505 17.8611 11.2499 16.5515 12.0102 16.2772L12.5567 15.6864C12.7168 15.5125 13.0036 15.4893 13.1968 15.634C13.3898 15.7783 13.4158 16.0364 13.2551 16.21L12.6343 16.8812C12.5849 16.9347 12.5206 16.9763 12.4482 17.0013C11.0398 17.4887 8.80769 18.6233 8.81243 19.5936C8.81361 19.8197 8.6109 20.0035 8.35996 20.0045H8.35787Z" fill="black"/>
<path d="M21.0368 5.43004C20.8696 5.43004 20.7086 5.34668 20.6293 5.20259C18.9668 2.18422 15.2799 0.803531 9.03943 0.818713H9.03706C8.78701 0.818713 8.58371 0.636806 8.58252 0.411756C8.58134 0.185636 8.78375 0.0015975 9.03469 0.000534375C9.09624 0.00027 9.15839 0 9.21965 0C15.7403 0 19.6264 1.53969 21.4437 4.83931C21.5553 5.04173 21.4632 5.28702 21.2383 5.38743C21.1735 5.41646 21.1046 5.43004 21.0368 5.43004Z" fill="black"/>
<path d="M29.7552 21.3262C29.7339 21.3262 29.7126 21.3249 29.691 21.3222C22.9049 20.4585 22.5379 15.9963 22.1831 11.6809C22.0348 9.87676 21.8813 8.01135 21.2716 6.38351C21.1912 6.16938 21.319 5.9374 21.5569 5.86522C21.7948 5.79331 22.0529 5.90784 22.1328 6.12197C22.7794 7.84782 22.9371 9.7657 23.0898 11.6205C23.4479 15.9777 23.7574 19.7408 29.8182 20.5121C30.0668 20.5437 30.2399 20.7507 30.2047 20.9744C30.1725 21.1787 29.978 21.3262 29.7552 21.3262Z" fill="black"/>
<path d="M17.6751 7.87149C17.5017 7.87149 17.3363 7.782 17.2605 7.63072C15.991 5.09787 13.3641 3.74196 8.9936 3.36323C8.74355 3.34166 8.56066 3.14164 8.58463 2.91685C8.6089 2.6918 8.82788 2.5272 9.0806 2.54877C13.8092 2.95866 16.6717 4.46639 18.0891 7.29407C18.1924 7.50021 18.0906 7.74231 17.8619 7.83526C17.8012 7.86003 17.7376 7.87149 17.6751 7.87149Z" fill="black"/>
<path d="M26.1387 23.1003C26.1174 23.1003 26.0961 23.099 26.0745 23.0964C20.6064 22.4004 19.4526 19.2976 19.0203 16.0483C18.92 15.3026 18.8552 14.5193 18.7927 13.7616C18.6812 12.4102 18.5657 11.0127 18.2441 9.72526C18.189 9.50473 18.3429 9.28581 18.5879 9.23627C18.8344 9.1878 19.0759 9.32549 19.1313 9.54575C19.4674 10.8921 19.5852 12.3202 19.6994 13.7011C19.7639 14.4839 19.8249 15.2232 19.9229 15.9503C20.3727 19.3312 21.6126 21.7021 26.2018 22.2862C26.4504 22.3179 26.6235 22.5248 26.5883 22.7485C26.556 22.9528 26.3616 23.1003 26.1387 23.1003Z" fill="black"/>
<path d="M14.7593 10.9936C14.5667 10.9936 14.388 10.8828 14.3264 10.7089C13.5011 8.38192 11.7812 6.95943 8.91394 6.2326C8.67217 6.17161 8.53161 5.94549 8.59967 5.72816C8.66744 5.51056 8.91897 5.38352 9.16015 5.44531C12.349 6.25337 14.2657 7.84686 15.1923 10.4601C15.2686 10.6753 15.1366 10.9055 14.8975 10.9742C14.8517 10.9875 14.8049 10.9936 14.7593 10.9936Z" fill="black"/>
<path d="M22.5272 24.8511C22.5059 24.8511 22.4843 24.8498 22.4627 24.8471C16.1255 24.0364 15.7766 19.8427 15.4686 16.1425C15.4499 15.9172 15.6375 15.7209 15.8879 15.7038C16.1406 15.6908 16.3566 15.8557 16.3753 16.0812C16.739 20.4534 17.3681 23.369 22.5906 24.0369C22.8392 24.0689 23.012 24.2759 22.9768 24.4996C22.9445 24.7038 22.7498 24.8511 22.5272 24.8511Z" fill="black"/>
<path d="M19.7423 27.0019C19.721 27.0019 19.6997 27.0006 19.6781 26.9979C14.3313 26.3171 13.5424 22.9978 13.2228 19.9397C13.1991 19.7147 13.3829 19.5152 13.6326 19.4942C13.8815 19.4721 14.104 19.638 14.1277 19.863C14.4405 22.8551 15.1102 25.59 19.8053 26.1877C20.0539 26.2194 20.227 26.4263 20.1918 26.6501C20.1595 26.8543 19.9651 27.0019 19.7423 27.0019Z" fill="black"/>
</svg>
