<svg width="30" height="29" viewBox="0 0 30 29" fill="none" xmlns="http://www.w3.org/2000/svg">
<g clip-path="url(#clip0_9427_1756)">
<path d="M4.34246 27.8321C4.20655 27.8321 4.07064 27.7892 3.96689 27.7034C3.75939 27.5317 3.75939 27.2537 3.96689 27.0821L9.09287 22.8417C9.14958 22.7945 9.21875 22.7591 9.29484 22.737L10.6834 22.3397L22.6275 12.4599C22.7081 12.3933 22.7672 12.3192 22.7983 12.2465C23.0636 11.6246 22.3266 10.8239 22.0199 10.5682C21.7121 10.3159 20.7441 9.70482 19.9922 9.92566C19.904 9.95141 19.8155 10 19.7353 10.0667L7.79044 19.9468L7.31008 21.095C7.28345 21.158 7.24057 21.2152 7.1835 21.2621L2.05717 25.5024C1.84967 25.6741 1.51352 25.6741 1.30602 25.5024C1.09852 25.3308 1.09852 25.0527 1.30602 24.8811L6.34588 20.7123L6.82624 19.564C6.85287 19.5011 6.89576 19.4439 6.95282 19.397L18.9834 9.44565C19.1778 9.28431 19.3984 9.16703 19.6388 9.09694C21.1781 8.64925 22.7081 9.89449 22.772 9.94741C22.8364 10.0006 24.3428 11.2664 23.7999 12.5394C23.7151 12.7377 23.5734 12.9196 23.3793 13.081L11.3481 23.0325C11.2913 23.0797 11.2222 23.1152 11.1461 23.1372L9.75756 23.5346L4.71804 27.7034C4.61428 27.7892 4.47838 27.8321 4.34246 27.8321Z" fill="black"/>
<path d="M9.46857 23.5954C9.33266 23.5954 9.19674 23.5525 9.093 23.4667L6.43248 21.2657C6.22498 21.094 6.22498 20.816 6.43248 20.6444C6.63998 20.4727 6.97614 20.4727 7.18364 20.6444L9.84415 22.8453C10.0517 23.017 10.0517 23.295 9.84415 23.4667C9.7404 23.5525 9.60448 23.5954 9.46857 23.5954Z" fill="black"/>
<path d="M22.8714 17.4839C22.6878 17.4839 22.5094 17.4049 22.4108 17.2639C22.2645 17.0536 22.3517 16.785 22.6058 16.6637L24.0535 15.9732C24.1372 15.9306 24.2154 15.8702 24.2666 15.8047C24.7836 15.1422 23.9878 14.0348 23.9799 14.0239C23.9757 14.0182 23.4857 13.3743 22.8089 13.11C22.5436 13.0064 22.4302 12.7444 22.5554 12.525C22.6809 12.3058 22.9977 12.2123 23.2626 12.3153C24.2292 12.6929 24.8583 13.5279 24.8846 13.5634C24.9323 13.6275 26.0435 15.1479 25.1585 16.2818C25.0198 16.4595 24.831 16.6094 24.5968 16.7284L23.1364 17.4252C23.053 17.465 22.9617 17.4839 22.8714 17.4839Z" fill="black"/>
<path d="M25.361 26.3345C25.1196 26.3345 24.9011 26.1975 24.844 25.9947L21.9182 15.6014C21.8518 15.3651 22.0292 15.1288 22.3152 15.0739C22.6002 15.0193 22.8866 15.1663 22.953 15.4023L25.8787 25.7956C25.9451 26.0319 25.7677 26.2681 25.4817 26.3231C25.4413 26.3308 25.4008 26.3345 25.361 26.3345Z" fill="black"/>
<path d="M18.008 10.9625C17.8825 10.9625 17.7566 10.9258 17.6556 10.8515L9.11557 4.57236C8.89596 4.41102 8.87625 4.13353 9.0713 3.95217C9.26634 3.7708 9.6025 3.7545 9.82107 3.91555L18.3611 10.1946C18.5807 10.356 18.6005 10.6335 18.4054 10.8148C18.3006 10.9127 18.1547 10.9625 18.008 10.9625Z" fill="black"/>
<path d="M7.86907 16.1843C7.74353 16.1843 7.61765 16.1476 7.51666 16.0733L2.48959 12.377C2.26999 12.2157 2.25027 11.9382 2.44532 11.7569C2.64037 11.5755 2.97652 11.5592 3.19509 11.7202L8.22217 15.4165C8.44177 15.5778 8.46148 15.8553 8.26644 16.0367C8.16165 16.1345 8.0157 16.1843 7.86907 16.1843Z" fill="black"/>
<path d="M7.86914 19.5732C7.7436 19.5732 7.61772 19.5366 7.51674 19.4622L0.388026 14.2207C0.168423 14.0593 0.148709 13.7819 0.343757 13.6005C0.538804 13.4191 0.874958 13.4031 1.09353 13.5639L8.22224 18.8054C8.44185 18.9668 8.46156 19.2442 8.26651 19.4256C8.16172 19.5234 8.01577 19.5732 7.86914 19.5732Z" fill="black"/>
<path d="M14.8715 27.397C14.636 27.397 14.4209 27.2666 14.3583 27.0695L13.4356 24.1688C13.3609 23.9339 13.5304 23.6937 13.8139 23.6321C14.0986 23.5692 14.388 23.7108 14.4627 23.9451L15.3854 26.8458C15.4601 27.0806 15.2907 27.3209 15.0071 27.3824C14.9618 27.3925 14.9161 27.397 14.8715 27.397Z" fill="black"/>
<path d="M12.5342 28.9989C12.2987 28.9989 12.0836 28.8684 12.021 28.6713L10.8497 24.9891C10.775 24.7543 10.9444 24.514 11.228 24.4525C11.5126 24.3895 11.8021 24.5311 11.8768 24.7654L13.0481 28.4476C13.1228 28.6825 12.9534 28.9228 12.6698 28.9843C12.6245 28.9943 12.5788 28.9989 12.5342 28.9989Z" fill="black"/>
<path d="M18.0634 7.24127C17.7702 7.24127 17.5322 7.04446 17.5322 6.80188C17.5322 6.23061 17.7549 5.92367 17.9341 5.67679C18.0849 5.46911 18.1845 5.3318 18.1845 5.00426C18.1845 4.67643 18.0849 4.53911 17.9341 4.33115C17.7549 4.08456 17.5322 3.77733 17.5322 3.20606C17.5322 2.63479 17.7549 2.32756 17.9341 2.08097C18.0849 1.873 18.1845 1.73569 18.1845 1.40814C18.1845 1.16556 18.4224 0.96875 18.7157 0.96875C19.0089 0.96875 19.2469 1.16556 19.2469 1.40814C19.2469 1.97913 19.0242 2.28636 18.845 2.53294C18.6942 2.74091 18.5946 2.87822 18.5946 3.20605C18.5946 3.53388 18.6942 3.67119 18.845 3.87916C19.0242 4.12574 19.2469 4.43298 19.2469 5.00425C19.2469 5.57552 19.0242 5.88247 18.845 6.12934C18.6942 6.33702 18.5946 6.47433 18.5946 6.80188C18.5946 7.04446 18.3567 7.24127 18.0634 7.24127Z" fill="black"/>
<path d="M22.3598 8.21088C22.0665 8.21088 21.8286 8.01406 21.8286 7.77149C21.8286 7.03859 22.1163 6.64211 22.3477 6.32343C22.5528 6.04023 22.715 5.81681 22.715 5.32764C22.715 4.83819 22.5528 4.61478 22.3474 4.33157C22.1163 4.0129 21.8286 3.61612 21.8286 2.88352C21.8286 2.15091 22.1163 1.75414 22.3474 1.43546C22.5528 1.15226 22.715 0.928846 22.715 0.439392C22.715 0.196807 22.9529 0 23.2462 0C23.5395 0 23.7774 0.196813 23.7774 0.439392C23.7774 1.172 23.4897 1.56877 23.2586 1.88745C23.0532 2.17065 22.891 2.39406 22.891 2.88352C22.891 3.37297 23.0532 3.59639 23.2586 3.87959C23.4897 4.19826 23.7774 4.59504 23.7774 5.32764C23.7774 6.06025 23.4897 6.45674 23.2586 6.77541C23.0532 7.05862 22.891 7.28203 22.891 7.77149C22.891 8.01407 22.6531 8.21088 22.3598 8.21088Z" fill="black"/>
<path d="M26.7548 7.75014C26.4616 7.75014 26.2236 7.55333 26.2236 7.31075C26.2236 6.55268 26.5093 6.15906 26.7611 5.81178C26.9769 5.51427 27.1474 5.27941 27.1474 4.7645C27.1474 4.24929 26.9769 4.01443 26.7611 3.71693C26.5093 3.36965 26.2236 2.97602 26.2236 2.21767C26.2236 1.88498 26.2797 1.59263 26.3945 1.32401C26.4924 1.09545 26.796 0.975585 27.0727 1.05654C27.349 1.1375 27.4939 1.38866 27.396 1.61751C27.321 1.79258 27.286 1.98338 27.286 2.21767C27.286 2.73258 27.4565 2.96744 27.672 3.26495C27.9241 3.61223 28.2098 4.00586 28.2098 4.7645C28.2098 5.52285 27.9241 5.91647 27.672 6.26375C27.4565 6.56126 27.286 6.79612 27.286 7.31074C27.286 7.55333 27.0481 7.75014 26.7548 7.75014Z" fill="black"/>
</g>
<defs>
<clipPath id="clip0_9427_1756">
<rect width="29" height="29" fill="white" transform="translate(0.209473)"/>
</clipPath>
</defs>
</svg>
